@startuml crearEspacio

skinparam linetype polyline

state crearEspacio as "crearEspacio()" {

    state " " as SolicitandoDatos
    state " " as CreandoEspacio

    [*] -[#green]-> SolicitandoDatos 
    note on link
    <b>Administrador</b> solicita crear espacio nuevo
    end note    
    
    SolicitandoDatos -[#green]-> CreandoEspacio
    note on link
    <b>Sistema</b> presenta solicitud de datos mínimos del espacio
    • Nombre del espacio (obligatorio)
    • Permite solicitar crear espacio
    • Permite solicitar cancelar creación
    end note
    
    CreandoEspacio -[#green]-> [*]
    note on link
    <b>Administrador</b> proporciona datos mínimos
    <b>Sistema</b> crea espacio y transfiere a actualización
    end note
}

crearEspacio -[#green]-> ESPACIO_ABIERTO
note on link
actualizarEspacio(espacioNuevo)
end note

crearEspacio -[#blue]-> ESPACIOS_ABIERTO
note on link
cancelar creación
end note

@enduml
